<svg xmlns="http://www.w3.org/2000/svg" xmlns:xlink="http://www.w3.org/1999/xlink" width="500" zoomAndPan="magnify" viewBox="0 0 375 374.999991" height="500" preserveAspectRatio="xMidYMid meet" version="1.0"><defs><g/></defs><g fill="#000000" fill-opacity="1"><g transform="translate(91.191317, 162.973609)"><g><path d="M 19.234375 -7.085938 C 19.234375 -17.316406 19.234375 -27.597656 19.234375 -37.878906 L 24.773438 -37.878906 C 29.566406 -37.878906 31.378906 -35.003906 31.804688 -33.882812 L 32.285156 -33.882812 L 31.914062 -39.957031 L 0.371094 -39.957031 L 0 -33.882812 L 0.480469 -33.882812 C 0.90625 -35.003906 2.71875 -37.878906 7.457031 -37.878906 L 13.050781 -37.878906 C 13.050781 -27.597656 13.050781 -17.316406 13.050781 -7.085938 C 13.050781 -4.367188 12.894531 -2.023438 12.09375 0 L 20.136719 0 C 19.390625 -2.023438 19.234375 -4.367188 19.234375 -7.085938 Z M 19.234375 -7.085938 "/></g></g></g><g fill="#000000" fill-opacity="1"><g transform="translate(127.946512, 162.973609)"><g><path d="M 21.789062 -39.957031 L 15.183594 -39.957031 L 3.304688 -7.03125 C 2.449219 -4.6875 1.171875 -1.972656 0 0 L 6.980469 0 C 5.273438 -2.875 4.792969 -5.0625 5.488281 -7.03125 C 6.445312 -9.644531 7.40625 -11.773438 9.910156 -13.210938 C 13.585938 -15.398438 19.285156 -15.34375 23.015625 -13.050781 C 25.199219 -11.667969 26.210938 -9.644531 27.171875 -6.925781 C 28.023438 -4.636719 28.929688 -1.863281 28.929688 0 L 37.027344 0 C 35.855469 -1.972656 34.523438 -4.6875 33.671875 -7.03125 Z M 24.402344 -14.652344 C 19.710938 -17.632812 12.894531 -17.632812 8.257812 -14.652344 L 16.300781 -36.867188 Z M 24.402344 -14.652344 "/></g></g></g><g fill="#000000" fill-opacity="1"><g transform="translate(169.389329, 162.973609)"><g><path d="M 7.085938 -32.871094 C 7.085938 -35.589844 7.300781 -37.933594 8.042969 -39.957031 L 0 -39.957031 C 0.746094 -37.933594 0.957031 -35.589844 0.957031 -32.871094 C 0.957031 -28.503906 0.957031 -11.453125 0.957031 -7.085938 C 0.957031 -4.367188 0.746094 -2.023438 0 0 L 26.425781 0 L 26.796875 -6.074219 L 26.320312 -6.074219 C 25.890625 -4.953125 24.082031 -2.078125 19.339844 -2.078125 L 7.085938 -2.078125 Z M 7.085938 -32.871094 "/></g></g></g><g fill="#000000" fill-opacity="1"><g transform="translate(200.711145, 162.973609)"><g><path d="M 21.628906 -22.109375 L 30.207031 -32.605469 C 32.605469 -35.535156 34.203125 -37.347656 37.132812 -39.957031 L 32.445312 -39.957031 C 31.539062 -38.039062 30.3125 -36.226562 29.195312 -34.628906 L 19.980469 -23.335938 L 11.773438 -35.109375 C 10.65625 -36.707031 9.804688 -38.039062 8.949219 -39.957031 L 0 -39.957031 C 1.546875 -38.519531 3.730469 -35.855469 4.953125 -34.097656 L 15.449219 -19.019531 L 15.449219 -7.085938 C 15.449219 -4.367188 15.289062 -2.023438 14.542969 0 L 22.589844 0 C 21.84375 -2.023438 21.628906 -4.367188 21.628906 -7.085938 Z M 21.628906 -22.109375 "/></g></g></g><g fill="#000000" fill-opacity="1"><g transform="translate(242.367035, 162.973609)"><g><path d="M 21.789062 -39.957031 L 15.183594 -39.957031 L 3.304688 -7.03125 C 2.449219 -4.6875 1.171875 -1.972656 0 0 L 6.980469 0 C 5.273438 -2.875 4.792969 -5.0625 5.488281 -7.03125 C 6.445312 -9.644531 7.40625 -11.773438 9.910156 -13.210938 C 13.585938 -15.398438 19.285156 -15.34375 23.015625 -13.050781 C 25.199219 -11.667969 26.210938 -9.644531 27.171875 -6.925781 C 28.023438 -4.636719 28.929688 -1.863281 28.929688 0 L 37.027344 0 C 35.855469 -1.972656 34.523438 -4.6875 33.671875 -7.03125 Z M 24.402344 -14.652344 C 19.710938 -17.632812 12.894531 -17.632812 8.257812 -14.652344 L 16.300781 -36.867188 Z M 24.402344 -14.652344 "/></g></g></g><g fill="#feb06a" fill-opacity="1"><g transform="translate(112.792156, 237.151122)"><g><path d="M 0 0 L 16.144531 0 C 24.878906 0 29.515625 -4.476562 29.515625 -10.390625 C 29.515625 -16.144531 25.625 -19.925781 19.871094 -20.882812 C 24.453125 -23.175781 28.769531 -25.730469 28.769531 -31.484375 C 28.769531 -36.015625 24.613281 -39.957031 16.144531 -39.957031 L 0 -39.957031 C 0.746094 -37.933594 0.957031 -35.589844 0.957031 -32.871094 C 0.957031 -28.503906 0.957031 -11.453125 0.957031 -7.085938 C 0.957031 -4.367188 0.746094 -2.023438 0 0 Z M 17.953125 -19.980469 C 21.257812 -18.648438 23.386719 -14.703125 23.335938 -10.976562 C 23.335938 -6.074219 19.765625 -1.863281 11.722656 -1.863281 L 7.085938 -1.863281 L 7.085938 -9.429688 C 7.085938 -15.183594 13.265625 -17.632812 17.953125 -19.980469 Z M 7.085938 -38.09375 L 11.667969 -38.09375 C 19.019531 -38.09375 22.589844 -35.214844 22.589844 -31.484375 C 22.589844 -22.324219 11.242188 -21.84375 7.085938 -14.652344 Z M 7.085938 -38.09375 "/></g></g></g><g fill="#feb06a" fill-opacity="1"><g transform="translate(146.72413, 237.151122)"><g><path d="M 21.789062 -39.957031 L 15.183594 -39.957031 L 3.304688 -7.03125 C 2.449219 -4.6875 1.171875 -1.972656 0 0 L 6.980469 0 C 5.273438 -2.875 4.792969 -5.0625 5.488281 -7.03125 C 6.445312 -9.644531 7.40625 -11.773438 9.910156 -13.210938 C 13.585938 -15.398438 19.285156 -15.34375 23.015625 -13.050781 C 25.199219 -11.667969 26.210938 -9.644531 27.171875 -6.925781 C 28.023438 -4.636719 28.929688 -1.863281 28.929688 0 L 37.027344 0 C 35.855469 -1.972656 34.523438 -4.6875 33.671875 -7.03125 Z M 24.402344 -14.652344 C 19.710938 -17.632812 12.894531 -17.632812 8.257812 -14.652344 L 16.300781 -36.867188 Z M 24.402344 -14.652344 "/></g></g></g><g fill="#feb06a" fill-opacity="1"><g transform="translate(188.166947, 237.151122)"><g><path d="M 26.371094 -39.957031 C 29.621094 -38.09375 30.367188 -33.832031 30.367188 -30.421875 L 30.367188 -9.375 L 7.671875 -39.957031 C 5.113281 -39.957031 2.558594 -39.957031 0 -39.957031 L 0.957031 -38.679688 L 0.957031 -7.085938 C 0.957031 -4.367188 0.746094 -2.023438 0 0 L 7.03125 0 C 3.78125 -1.863281 3.035156 -6.125 3.035156 -9.535156 L 3.035156 -35.855469 L 29.675781 0 L 32.445312 0 L 32.445312 -32.871094 C 32.445312 -35.589844 32.660156 -37.933594 33.402344 -39.957031 Z M 26.371094 -39.957031 "/></g></g></g><g fill="#feb06a" fill-opacity="1"><g transform="translate(226.040775, 237.151122)"><g><path d="M 7.085938 -7.085938 L 7.085938 -11.1875 L 13.640625 -19.5 L 21.46875 -4.742188 C 22.324219 -3.195312 22.910156 -1.703125 23.28125 0 L 31.753906 0 C 30.421875 -1.703125 28.503906 -4.742188 27.222656 -7.085938 L 17.792969 -24.773438 L 24.132812 -32.925781 C 26 -35.269531 28.289062 -37.933594 30.421875 -39.957031 L 23.441406 -39.957031 C 23.546875 -37.292969 23.015625 -34.84375 20.9375 -32.179688 L 7.085938 -14.597656 L 7.085938 -32.871094 C 7.085938 -35.589844 7.300781 -37.933594 8.042969 -39.957031 L 0 -39.957031 C 0.746094 -37.933594 0.957031 -35.589844 0.957031 -32.871094 C 0.957031 -28.503906 0.957031 -11.453125 0.957031 -7.085938 C 0.957031 -4.367188 0.746094 -2.023438 0 0 L 8.042969 0 C 7.300781 -2.023438 7.085938 -4.367188 7.085938 -7.085938 Z M 7.085938 -7.085938 "/></g></g></g></svg>