<svg xmlns="http://www.w3.org/2000/svg" xmlns:xlink="http://www.w3.org/1999/xlink" width="500" zoomAndPan="magnify" viewBox="0 0 375 374.999991" height="500" preserveAspectRatio="xMidYMid meet" version="1.0"><defs><g/></defs><g fill="#000000" fill-opacity="1"><g transform="translate(117.979969, 163.893916)"><g><path d="M 19.34375 -7.128906 C 19.34375 -17.414062 19.34375 -27.757812 19.34375 -38.101562 L 24.917969 -38.101562 C 29.742188 -38.101562 31.5625 -35.207031 31.992188 -34.082031 L 32.472656 -34.082031 L 32.097656 -40.191406 L 0.375 -40.191406 L 0 -34.082031 L 0.480469 -34.082031 C 0.910156 -35.207031 2.734375 -38.101562 7.503906 -38.101562 L 13.128906 -38.101562 C 13.128906 -27.757812 13.128906 -17.414062 13.128906 -7.128906 C 13.128906 -4.394531 12.96875 -2.035156 12.164062 0 L 20.257812 0 C 19.503906 -2.035156 19.34375 -4.394531 19.34375 -7.128906 Z M 19.34375 -7.128906 "/></g></g></g><g fill="#000000" fill-opacity="1"><g transform="translate(154.948926, 163.893916)"><g><path d="M 21.917969 -40.191406 L 15.273438 -40.191406 L 3.324219 -7.074219 C 2.464844 -4.714844 1.179688 -1.984375 0 0 L 7.019531 0 C 5.304688 -2.894531 4.824219 -5.089844 5.519531 -7.074219 C 6.484375 -9.699219 7.449219 -11.84375 9.96875 -13.289062 C 13.664062 -15.488281 19.398438 -15.433594 23.148438 -13.128906 C 25.347656 -11.734375 26.363281 -9.699219 27.328125 -6.964844 C 28.1875 -4.664062 29.097656 -1.875 29.097656 0 L 37.242188 0 C 36.0625 -1.984375 34.726562 -4.714844 33.867188 -7.074219 Z M 24.542969 -14.738281 C 19.828125 -17.738281 12.96875 -17.738281 8.304688 -14.738281 L 16.398438 -37.082031 Z M 24.542969 -14.738281 "/></g></g></g><g fill="#000000" fill-opacity="1"><g transform="translate(196.632757, 163.893916)"><g><path d="M 21.757812 -22.238281 L 30.382812 -32.796875 C 32.796875 -35.742188 34.402344 -37.566406 37.351562 -40.191406 L 32.636719 -40.191406 C 31.722656 -38.261719 30.492188 -36.441406 29.367188 -34.832031 L 20.09375 -23.472656 L 11.84375 -35.3125 C 10.71875 -36.921875 9.859375 -38.261719 9.003906 -40.191406 L 0 -40.191406 C 1.554688 -38.742188 3.75 -36.0625 4.984375 -34.296875 L 15.539062 -19.128906 L 15.539062 -7.128906 C 15.539062 -4.394531 15.378906 -2.035156 14.628906 0 L 22.722656 0 C 21.972656 -2.035156 21.757812 -4.394531 21.757812 -7.128906 Z M 21.757812 -22.238281 "/></g></g></g><g fill="#000000" fill-opacity="1"><g transform="translate(238.530746, 163.893916)"><g/></g></g><g fill="#ff1616" fill-opacity="1"><g transform="translate(9.558101, 238.893911)"><g><path d="M 7.128906 -7.128906 L 7.128906 -17.363281 L 13.023438 -17.363281 C 17.84375 -17.363281 19.667969 -14.46875 20.09375 -13.34375 L 20.578125 -13.34375 C 20.578125 -16.71875 20.578125 -20.09375 20.578125 -23.472656 L 20.09375 -23.472656 C 19.667969 -22.347656 17.84375 -19.453125 13.023438 -19.453125 L 7.128906 -19.453125 L 7.128906 -38.101562 L 19.238281 -38.101562 C 24.0625 -38.101562 25.828125 -35.207031 26.3125 -34.082031 L 26.738281 -34.082031 L 26.363281 -40.191406 L 0 -40.191406 C 0.75 -38.15625 0.964844 -35.796875 0.964844 -33.0625 C 0.964844 -28.667969 0.964844 -11.519531 0.964844 -7.128906 C 0.964844 -4.394531 0.75 -2.035156 0 0 L 8.089844 0 C 7.339844 -2.035156 7.128906 -4.394531 7.128906 -7.128906 Z M 7.128906 -7.128906 "/></g></g></g><g fill="#ff1616" fill-opacity="1"><g transform="translate(40.847768, 238.893911)"><g><path d="M 20.84375 -40.941406 C 9.324219 -40.941406 0 -31.617188 0 -20.09375 C 0 -8.574219 9.324219 0.75 20.84375 0.75 C 32.367188 0.75 41.691406 -8.574219 41.691406 -20.09375 C 41.691406 -31.617188 32.367188 -40.941406 20.84375 -40.941406 Z M 29.847656 -3.75 C 22.828125 0.105469 13.183594 -4.125 8.199219 -13.183594 C 3.214844 -22.183594 4.875 -32.636719 11.84375 -36.492188 C 18.808594 -40.296875 28.507812 -36.0625 33.492188 -27.0625 C 38.421875 -18.003906 36.816406 -7.554688 29.847656 -3.75 Z M 29.847656 -3.75 "/></g></g></g><g fill="#ff1616" fill-opacity="1"><g transform="translate(87.085753, 238.893911)"><g><path d="M 20.84375 -40.941406 C 9.324219 -40.941406 0 -31.617188 0 -20.09375 C 0 -8.574219 9.324219 0.75 20.84375 0.75 C 32.367188 0.75 41.691406 -8.574219 41.691406 -20.09375 C 41.691406 -31.617188 32.367188 -40.941406 20.84375 -40.941406 Z M 29.847656 -3.75 C 22.828125 0.105469 13.183594 -4.125 8.199219 -13.183594 C 3.214844 -22.183594 4.875 -32.636719 11.84375 -36.492188 C 18.808594 -40.296875 28.507812 -36.0625 33.492188 -27.0625 C 38.421875 -18.003906 36.816406 -7.554688 29.847656 -3.75 Z M 29.847656 -3.75 "/></g></g></g><g fill="#ff1616" fill-opacity="1"><g transform="translate(133.323737, 238.893911)"><g><path d="M 0 0 C 5.304688 0 10.609375 0 15.914062 0 C 27.007812 0 36.976562 -6.914062 36.976562 -20.09375 C 36.976562 -33.277344 27.007812 -40.191406 15.914062 -40.191406 C 10.609375 -40.191406 5.304688 -40.191406 0 -40.191406 C 0.75 -38.15625 0.964844 -35.796875 0.964844 -33.0625 C 0.964844 -28.667969 0.964844 -11.519531 0.964844 -7.128906 C 0.964844 -4.394531 0.75 -2.035156 0 0 Z M 7.128906 -38.101562 L 15.914062 -38.101562 C 23.523438 -38.101562 30.652344 -31.1875 30.652344 -20.09375 C 30.652344 -9.003906 23.523438 -2.089844 15.914062 -2.089844 L 7.128906 -2.089844 Z M 7.128906 -38.101562 "/></g></g></g><g fill="#ff1616" fill-opacity="1"><g transform="translate(174.846836, 238.893911)"><g/></g></g><g fill="#ff1616" fill-opacity="1"><g transform="translate(193.33131, 238.893911)"><g><path d="M 28.347656 -29.207031 L 28.828125 -29.207031 L 28.828125 -36.921875 C 28.242188 -36.652344 27.703125 -37.082031 27.0625 -37.511719 C 23.953125 -39.761719 19.882812 -40.941406 15.324219 -40.941406 C 11.683594 -40.941406 7.664062 -40.03125 4.929688 -37.777344 C -0.160156 -33.546875 0.964844 -25.988281 6.589844 -22.828125 C 10.234375 -20.84375 14.523438 -19.988281 18.433594 -18.433594 C 21.972656 -16.988281 25.667969 -14.738281 25.667969 -10.394531 C 25.667969 -5.625 21.917969 -1.445312 15.96875 -1.445312 C 12.808594 -1.445312 9.96875 -2.195312 7.394531 -3.964844 C 2.144531 -7.609375 1.554688 -11.574219 1.554688 -17.578125 L 1.070312 -17.578125 L 0 -4.929688 C 0.75 -5.144531 1.5 -4.609375 1.929688 -4.234375 C 5.574219 -1.070312 11.519531 0.75 15.753906 0.75 C 19.71875 0.75 23.953125 -0.375 27.167969 -2.839844 C 33.597656 -7.769531 33.921875 -16.664062 27.007812 -21.328125 C 22.507812 -24.382812 15.96875 -25.667969 11.359375 -27.652344 C 8.199219 -29.042969 7.503906 -32.257812 8.46875 -34.671875 C 9.804688 -37.777344 13.878906 -38.851562 16.453125 -38.796875 C 22.933594 -38.796875 28.078125 -35.796875 28.347656 -29.207031 Z M 28.347656 -29.207031 "/></g></g></g><g fill="#ff1616" fill-opacity="1"><g transform="translate(229.87164, 238.893911)"><g><path d="M 19.34375 -7.128906 C 19.34375 -17.414062 19.34375 -27.757812 19.34375 -38.101562 L 24.917969 -38.101562 C 29.742188 -38.101562 31.5625 -35.207031 31.992188 -34.082031 L 32.472656 -34.082031 L 32.097656 -40.191406 L 0.375 -40.191406 L 0 -34.082031 L 0.480469 -34.082031 C 0.910156 -35.207031 2.734375 -38.101562 7.503906 -38.101562 L 13.128906 -38.101562 C 13.128906 -27.757812 13.128906 -17.414062 13.128906 -7.128906 C 13.128906 -4.394531 12.96875 -2.035156 12.164062 0 L 20.257812 0 C 19.503906 -2.035156 19.34375 -4.394531 19.34375 -7.128906 Z M 19.34375 -7.128906 "/></g></g></g><g fill="#ff1616" fill-opacity="1"><g transform="translate(266.840586, 238.893911)"><g><path d="M 31.617188 -40.191406 L 24.542969 -40.191406 C 27.8125 -38.316406 28.5625 -34.082031 28.5625 -30.652344 L 28.5625 -14.738281 C 28.5625 -7.503906 24.167969 -2.359375 16.773438 -2.195312 C 8.949219 -2.089844 7.128906 -9.21875 7.128906 -15.113281 L 7.128906 -33.0625 C 7.128906 -35.796875 7.339844 -38.15625 8.089844 -40.191406 L 0 -40.191406 C 0.75 -38.15625 0.964844 -35.796875 0.964844 -33.0625 L 0.964844 -15.21875 C 0.964844 -6.484375 6.484375 0 15.808594 0 C 25.132812 0 30.652344 -6.109375 30.652344 -14.574219 L 30.652344 -33.0625 C 30.652344 -35.796875 30.867188 -38.15625 31.617188 -40.191406 Z M 31.617188 -40.191406 "/></g></g></g><g fill="#ff1616" fill-opacity="1"><g transform="translate(302.845139, 238.893911)"><g><path d="M 7.128906 -7.128906 L 7.128906 -17.363281 L 13.023438 -17.363281 C 17.84375 -17.363281 19.667969 -14.46875 20.09375 -13.34375 L 20.578125 -13.34375 C 20.578125 -16.71875 20.578125 -20.09375 20.578125 -23.472656 L 20.09375 -23.472656 C 19.667969 -22.347656 17.84375 -19.453125 13.023438 -19.453125 L 7.128906 -19.453125 L 7.128906 -38.101562 L 19.238281 -38.101562 C 24.0625 -38.101562 25.828125 -35.207031 26.3125 -34.082031 L 26.738281 -34.082031 L 26.363281 -40.191406 L 0 -40.191406 C 0.75 -38.15625 0.964844 -35.796875 0.964844 -33.0625 C 0.964844 -28.667969 0.964844 -11.519531 0.964844 -7.128906 C 0.964844 -4.394531 0.75 -2.035156 0 0 L 8.089844 0 C 7.339844 -2.035156 7.128906 -4.394531 7.128906 -7.128906 Z M 7.128906 -7.128906 "/></g></g></g><g fill="#ff1616" fill-opacity="1"><g transform="translate(334.134817, 238.893911)"><g><path d="M 7.128906 -7.128906 L 7.128906 -17.363281 L 13.023438 -17.363281 C 17.84375 -17.363281 19.667969 -14.46875 20.09375 -13.34375 L 20.578125 -13.34375 C 20.578125 -16.71875 20.578125 -20.09375 20.578125 -23.472656 L 20.09375 -23.472656 C 19.667969 -22.347656 17.84375 -19.453125 13.023438 -19.453125 L 7.128906 -19.453125 L 7.128906 -38.101562 L 19.238281 -38.101562 C 24.0625 -38.101562 25.828125 -35.207031 26.3125 -34.082031 L 26.738281 -34.082031 L 26.363281 -40.191406 L 0 -40.191406 C 0.75 -38.15625 0.964844 -35.796875 0.964844 -33.0625 C 0.964844 -28.667969 0.964844 -11.519531 0.964844 -7.128906 C 0.964844 -4.394531 0.75 -2.035156 0 0 L 8.089844 0 C 7.339844 -2.035156 7.128906 -4.394531 7.128906 -7.128906 Z M 7.128906 -7.128906 "/></g></g></g></svg>