<svg xmlns="http://www.w3.org/2000/svg" xmlns:xlink="http://www.w3.org/1999/xlink" width="500" zoomAndPan="magnify" viewBox="0 0 375 374.999991" height="500" preserveAspectRatio="xMidYMid meet" version="1.0"><defs><g/></defs><g fill="#0a0a0a" fill-opacity="1"><g transform="translate(130.23737, 164.616094)"><g><path d="M 18.617188 -6.859375 C 18.617188 -16.761719 18.617188 -26.714844 18.617188 -36.667969 L 23.980469 -36.667969 C 28.625 -36.667969 30.378906 -33.882812 30.789062 -32.800781 L 31.253906 -32.800781 L 30.894531 -38.679688 L 0.359375 -38.679688 L 0 -32.800781 L 0.464844 -32.800781 C 0.875 -33.882812 2.628906 -36.667969 7.21875 -36.667969 L 12.636719 -36.667969 C 12.636719 -26.714844 12.636719 -16.761719 12.636719 -6.859375 C 12.636719 -4.230469 12.480469 -1.960938 11.707031 0 L 19.496094 0 C 18.773438 -1.960938 18.617188 -4.230469 18.617188 -6.859375 Z M 18.617188 -6.859375 "/></g></g></g><g fill="#0a0a0a" fill-opacity="1"><g transform="translate(165.815992, 164.616094)"><g><path d="M 21.09375 -38.679688 L 14.699219 -38.679688 L 3.199219 -6.808594 C 2.371094 -4.539062 1.132812 -1.910156 0 0 L 6.757812 0 C 5.105469 -2.785156 4.640625 -4.898438 5.3125 -6.808594 C 6.242188 -9.335938 7.167969 -11.398438 9.59375 -12.789062 C 13.152344 -14.90625 18.671875 -14.851562 22.28125 -12.636719 C 24.394531 -11.292969 25.375 -9.335938 26.304688 -6.703125 C 27.128906 -4.488281 28.003906 -1.804688 28.003906 0 L 35.84375 0 C 34.710938 -1.910156 33.421875 -4.539062 32.59375 -6.808594 Z M 23.621094 -14.183594 C 19.082031 -17.070312 12.480469 -17.070312 7.992188 -14.183594 L 15.78125 -35.691406 Z M 23.621094 -14.183594 "/></g></g></g><g fill="#0a0a0a" fill-opacity="1"><g transform="translate(205.932184, 164.616094)"><g><path d="M 20.9375 -21.402344 L 29.242188 -31.5625 C 31.5625 -34.398438 33.109375 -36.152344 35.949219 -38.679688 L 31.410156 -38.679688 C 30.53125 -36.824219 29.347656 -35.070312 28.261719 -33.523438 L 19.339844 -22.589844 L 11.398438 -33.988281 C 10.316406 -35.535156 9.488281 -36.824219 8.664062 -38.679688 L 0 -38.679688 C 1.496094 -37.289062 3.609375 -34.710938 4.796875 -33.007812 L 14.957031 -18.414062 L 14.957031 -6.859375 C 14.957031 -4.230469 14.800781 -1.960938 14.078125 0 L 21.867188 0 C 21.144531 -1.960938 20.9375 -4.230469 20.9375 -6.859375 Z M 20.9375 -21.402344 "/></g></g></g><g fill="#1c6451" fill-opacity="1"><g transform="translate(10.096949, 236.12825)"><g><path d="M 6.859375 -6.859375 L 6.859375 -16.710938 L 24.085938 -16.710938 L 24.085938 -6.859375 C 24.085938 -4.230469 23.878906 -1.960938 23.15625 0 L 30.945312 0 C 30.222656 -1.960938 30.015625 -4.230469 30.015625 -6.859375 C 30.015625 -11.089844 30.015625 -27.59375 30.015625 -31.820312 C 30.015625 -34.453125 30.222656 -36.722656 30.945312 -38.679688 L 23.15625 -38.679688 C 23.878906 -36.722656 24.085938 -34.453125 24.085938 -31.820312 L 24.085938 -18.722656 L 6.859375 -18.722656 L 6.859375 -31.820312 C 6.859375 -34.453125 7.066406 -36.722656 7.789062 -38.679688 L 0 -38.679688 C 0.722656 -36.722656 0.929688 -34.453125 0.929688 -31.820312 C 0.929688 -27.59375 0.929688 -11.089844 0.929688 -6.859375 C 0.929688 -4.230469 0.722656 -1.960938 0 0 L 7.789062 0 C 7.066406 -1.960938 6.859375 -4.230469 6.859375 -6.859375 Z M 6.859375 -6.859375 "/></g></g></g><g fill="#1c6451" fill-opacity="1"><g transform="translate(45.314634, 236.12825)"><g><path d="M 26.871094 0 L 27.230469 -5.878906 L 26.765625 -5.878906 C 26.355469 -4.796875 24.601562 -2.011719 19.960938 -2.011719 L 6.859375 -2.011719 L 6.859375 -16.710938 L 12.53125 -16.710938 C 17.175781 -16.710938 18.929688 -13.925781 19.339844 -12.84375 L 19.804688 -12.84375 C 19.804688 -16.089844 19.804688 -19.339844 19.804688 -22.589844 L 19.339844 -22.589844 C 18.929688 -21.507812 17.175781 -18.722656 12.53125 -18.722656 L 6.859375 -18.722656 L 6.859375 -36.667969 L 18.515625 -36.667969 C 23.15625 -36.667969 24.859375 -33.882812 25.324219 -32.800781 L 25.734375 -32.800781 L 25.375 -38.679688 L 0 -38.679688 C 0.722656 -36.722656 0.929688 -34.453125 0.929688 -31.820312 C 0.929688 -27.59375 0.929688 -11.089844 0.929688 -6.859375 C 0.929688 -4.230469 0.722656 -1.960938 0 0 Z M 26.871094 0 "/></g></g></g><g fill="#1c6451" fill-opacity="1"><g transform="translate(76.871323, 236.12825)"><g><path d="M 21.09375 -38.679688 L 14.699219 -38.679688 L 3.199219 -6.808594 C 2.371094 -4.539062 1.132812 -1.910156 0 0 L 6.757812 0 C 5.105469 -2.785156 4.640625 -4.898438 5.3125 -6.808594 C 6.242188 -9.335938 7.167969 -11.398438 9.59375 -12.789062 C 13.152344 -14.90625 18.671875 -14.851562 22.28125 -12.636719 C 24.394531 -11.292969 25.375 -9.335938 26.304688 -6.703125 C 27.128906 -4.488281 28.003906 -1.804688 28.003906 0 L 35.84375 0 C 34.710938 -1.910156 33.421875 -4.539062 32.59375 -6.808594 Z M 23.621094 -14.183594 C 19.082031 -17.070312 12.480469 -17.070312 7.992188 -14.183594 L 15.78125 -35.691406 Z M 23.621094 -14.183594 "/></g></g></g><g fill="#1c6451" fill-opacity="1"><g transform="translate(116.987515, 236.12825)"><g><path d="M 6.859375 -31.820312 C 6.859375 -34.453125 7.066406 -36.722656 7.789062 -38.679688 L 0 -38.679688 C 0.722656 -36.722656 0.929688 -34.453125 0.929688 -31.820312 C 0.929688 -27.59375 0.929688 -11.089844 0.929688 -6.859375 C 0.929688 -4.230469 0.722656 -1.960938 0 0 L 25.582031 0 L 25.941406 -5.878906 L 25.476562 -5.878906 C 25.066406 -4.796875 23.3125 -2.011719 18.722656 -2.011719 L 6.859375 -2.011719 Z M 6.859375 -31.820312 "/></g></g></g><g fill="#1c6451" fill-opacity="1"><g transform="translate(147.306693, 236.12825)"><g><path d="M 18.617188 -6.859375 C 18.617188 -16.761719 18.617188 -26.714844 18.617188 -36.667969 L 23.980469 -36.667969 C 28.625 -36.667969 30.378906 -33.882812 30.789062 -32.800781 L 31.253906 -32.800781 L 30.894531 -38.679688 L 0.359375 -38.679688 L 0 -32.800781 L 0.464844 -32.800781 C 0.875 -33.882812 2.628906 -36.667969 7.21875 -36.667969 L 12.636719 -36.667969 C 12.636719 -26.714844 12.636719 -16.761719 12.636719 -6.859375 C 12.636719 -4.230469 12.480469 -1.960938 11.707031 0 L 19.496094 0 C 18.773438 -1.960938 18.617188 -4.230469 18.617188 -6.859375 Z M 18.617188 -6.859375 "/></g></g></g><g fill="#1c6451" fill-opacity="1"><g transform="translate(182.885315, 236.12825)"><g><path d="M 6.859375 -6.859375 L 6.859375 -16.710938 L 24.085938 -16.710938 L 24.085938 -6.859375 C 24.085938 -4.230469 23.878906 -1.960938 23.15625 0 L 30.945312 0 C 30.222656 -1.960938 30.015625 -4.230469 30.015625 -6.859375 C 30.015625 -11.089844 30.015625 -27.59375 30.015625 -31.820312 C 30.015625 -34.453125 30.222656 -36.722656 30.945312 -38.679688 L 23.15625 -38.679688 C 23.878906 -36.722656 24.085938 -34.453125 24.085938 -31.820312 L 24.085938 -18.722656 L 6.859375 -18.722656 L 6.859375 -31.820312 C 6.859375 -34.453125 7.066406 -36.722656 7.789062 -38.679688 L 0 -38.679688 C 0.722656 -36.722656 0.929688 -34.453125 0.929688 -31.820312 C 0.929688 -27.59375 0.929688 -11.089844 0.929688 -6.859375 C 0.929688 -4.230469 0.722656 -1.960938 0 0 L 7.789062 0 C 7.066406 -1.960938 6.859375 -4.230469 6.859375 -6.859375 Z M 6.859375 -6.859375 "/></g></g></g><g fill="#1c6451" fill-opacity="1"><g transform="translate(218.103001, 236.12825)"><g><path d="M 20.113281 -39.402344 C 8.921875 -39.402344 0 -30.480469 0 -19.390625 C 0 -8.199219 8.921875 0.722656 20.113281 0.722656 C 29.191406 0.722656 37.238281 -5.519531 39.507812 -14.335938 L 38.9375 -14.335938 C 36.257812 -6.960938 29.605469 -1.546875 21.609375 -1.753906 C 13.460938 -2.011719 6.1875 -9.285156 6.1875 -19.390625 C 6.1875 -30.121094 13.976562 -37.496094 22.332031 -37.03125 C 29.914062 -36.617188 35.433594 -30.894531 37.339844 -24.292969 L 38.011719 -24.292969 L 38.011719 -33.164062 C 36.515625 -33.109375 34.398438 -34.554688 33.164062 -35.484375 C 28.984375 -38.320312 25.011719 -39.402344 20.113281 -39.402344 Z M 20.113281 -39.402344 "/></g></g></g><g fill="#1c6451" fill-opacity="1"><g transform="translate(261.880176, 236.12825)"><g><path d="M 21.09375 -38.679688 L 14.699219 -38.679688 L 3.199219 -6.808594 C 2.371094 -4.539062 1.132812 -1.910156 0 0 L 6.757812 0 C 5.105469 -2.785156 4.640625 -4.898438 5.3125 -6.808594 C 6.242188 -9.335938 7.167969 -11.398438 9.59375 -12.789062 C 13.152344 -14.90625 18.671875 -14.851562 22.28125 -12.636719 C 24.394531 -11.292969 25.375 -9.335938 26.304688 -6.703125 C 27.128906 -4.488281 28.003906 -1.804688 28.003906 0 L 35.84375 0 C 34.710938 -1.910156 33.421875 -4.539062 32.59375 -6.808594 Z M 23.621094 -14.183594 C 19.082031 -17.070312 12.480469 -17.070312 7.992188 -14.183594 L 15.78125 -35.691406 Z M 23.621094 -14.183594 "/></g></g></g><g fill="#1c6451" fill-opacity="1"><g transform="translate(301.996382, 236.12825)"><g><path d="M 15.265625 -38.679688 L 0 -38.679688 C 0.722656 -36.722656 0.929688 -34.453125 0.929688 -31.820312 C 0.929688 -27.59375 0.929688 -11.089844 0.929688 -6.859375 C 0.929688 -4.230469 0.722656 -1.960938 0 0 C 2.269531 0 5.519531 0 7.789062 0 C 7.066406 -1.960938 6.859375 -4.230469 6.859375 -6.859375 L 6.859375 -7.941406 C 6.859375 -12.070312 9.179688 -14.542969 12.273438 -16.503906 L 18.617188 -4.589844 C 19.445312 -3.09375 20.011719 -1.648438 20.371094 0 L 28.574219 0 C 27.28125 -1.648438 25.425781 -4.589844 24.1875 -6.859375 L 17.535156 -19.289062 C 22.746094 -21.816406 27.851562 -24.394531 27.851562 -30.480469 C 27.851562 -34.96875 23.878906 -38.679688 15.265625 -38.679688 Z M 6.859375 -14.132812 L 6.859375 -36.875 L 9.953125 -36.875 C 16.144531 -36.875 21.714844 -35.484375 21.867188 -30.738281 C 22.175781 -22.796875 11.191406 -21.453125 6.859375 -14.132812 Z M 6.859375 -14.132812 "/></g></g></g><g fill="#1c6451" fill-opacity="1"><g transform="translate(334.842158, 236.12825)"><g><path d="M 26.871094 0 L 27.230469 -5.878906 L 26.765625 -5.878906 C 26.355469 -4.796875 24.601562 -2.011719 19.960938 -2.011719 L 6.859375 -2.011719 L 6.859375 -16.710938 L 12.53125 -16.710938 C 17.175781 -16.710938 18.929688 -13.925781 19.339844 -12.84375 L 19.804688 -12.84375 C 19.804688 -16.089844 19.804688 -19.339844 19.804688 -22.589844 L 19.339844 -22.589844 C 18.929688 -21.507812 17.175781 -18.722656 12.53125 -18.722656 L 6.859375 -18.722656 L 6.859375 -36.667969 L 18.515625 -36.667969 C 23.15625 -36.667969 24.859375 -33.882812 25.324219 -32.800781 L 25.734375 -32.800781 L 25.375 -38.679688 L 0 -38.679688 C 0.722656 -36.722656 0.929688 -34.453125 0.929688 -31.820312 C 0.929688 -27.59375 0.929688 -11.089844 0.929688 -6.859375 C 0.929688 -4.230469 0.722656 -1.960938 0 0 Z M 26.871094 0 "/></g></g></g></svg>