<svg xmlns="http://www.w3.org/2000/svg" xmlns:xlink="http://www.w3.org/1999/xlink" width="500" zoomAndPan="magnify" viewBox="0 0 375 374.999991" height="500" preserveAspectRatio="xMidYMid meet" version="1.0"><defs><g/></defs><g fill="#0a0a0a" fill-opacity="1"><g transform="translate(119.03547, 160.86801)"><g><path d="M 21.097656 -7.773438 C 21.097656 -18.996094 21.097656 -30.277344 21.097656 -41.554688 L 27.179688 -41.554688 C 32.4375 -41.554688 34.425781 -38.398438 34.894531 -37.171875 L 35.417969 -37.171875 L 35.011719 -43.835938 L 0.410156 -43.835938 L 0 -37.171875 L 0.527344 -37.171875 C 0.992188 -38.398438 2.980469 -41.554688 8.183594 -41.554688 L 14.320312 -41.554688 C 14.320312 -30.277344 14.320312 -18.996094 14.320312 -7.773438 C 14.320312 -4.792969 14.144531 -2.222656 13.269531 0 L 22.09375 0 C 21.273438 -2.222656 21.097656 -4.792969 21.097656 -7.773438 Z M 21.097656 -7.773438 "/></g></g></g><g fill="#0a0a0a" fill-opacity="1"><g transform="translate(159.36003, 160.86801)"><g><path d="M 23.90625 -43.835938 L 16.65625 -43.835938 L 3.625 -7.714844 C 2.6875 -5.144531 1.285156 -2.164062 0 0 L 7.65625 0 C 5.785156 -3.15625 5.261719 -5.550781 6.019531 -7.714844 C 7.070312 -10.578125 8.125 -12.917969 10.871094 -14.496094 C 14.902344 -16.890625 21.15625 -16.832031 25.25 -14.320312 C 27.644531 -12.800781 28.757812 -10.578125 29.808594 -7.597656 C 30.742188 -5.085938 31.738281 -2.046875 31.738281 0 L 40.621094 0 C 39.335938 -2.164062 37.875 -5.144531 36.9375 -7.714844 Z M 26.769531 -16.074219 C 21.625 -19.347656 14.144531 -19.347656 9.058594 -16.074219 L 17.886719 -40.445312 Z M 26.769531 -16.074219 "/></g></g></g><g fill="#0a0a0a" fill-opacity="1"><g transform="translate(204.827438, 160.86801)"><g><path d="M 23.730469 -24.253906 L 33.140625 -35.769531 C 35.769531 -38.984375 37.523438 -40.972656 40.738281 -43.835938 L 35.59375 -43.835938 C 34.601562 -41.730469 33.257812 -39.746094 32.027344 -37.992188 L 21.917969 -25.601562 L 12.917969 -38.515625 C 11.691406 -40.269531 10.753906 -41.730469 9.820312 -43.835938 L 0 -43.835938 C 1.695312 -42.257812 4.089844 -39.335938 5.4375 -37.40625 L 16.949219 -20.867188 L 16.949219 -7.773438 C 16.949219 -4.792969 16.773438 -2.222656 15.957031 0 L 24.78125 0 C 23.964844 -2.222656 23.730469 -4.792969 23.730469 -7.773438 Z M 23.730469 -24.253906 "/></g></g></g><g fill="#ff914d" fill-opacity="1"><g transform="translate(12.79329, 242.618005)"><g><path d="M 7.773438 -7.773438 L 7.773438 -18.9375 L 27.296875 -18.9375 L 27.296875 -7.773438 C 27.296875 -4.792969 27.0625 -2.222656 26.242188 0 L 35.070312 0 C 34.25 -2.222656 34.015625 -4.792969 34.015625 -7.773438 C 34.015625 -12.566406 34.015625 -31.269531 34.015625 -36.0625 C 34.015625 -39.042969 34.25 -41.613281 35.070312 -43.835938 L 26.242188 -43.835938 C 27.0625 -41.613281 27.296875 -39.042969 27.296875 -36.0625 L 27.296875 -21.214844 L 7.773438 -21.214844 L 7.773438 -36.0625 C 7.773438 -39.042969 8.007812 -41.613281 8.824219 -43.835938 L 0 -43.835938 C 0.816406 -41.613281 1.050781 -39.042969 1.050781 -36.0625 C 1.050781 -31.269531 1.050781 -12.566406 1.050781 -7.773438 C 1.050781 -4.792969 0.816406 -2.222656 0 0 L 8.824219 0 C 8.007812 -2.222656 7.773438 -4.792969 7.773438 -7.773438 Z M 7.773438 -7.773438 "/></g></g></g><g fill="#ff914d" fill-opacity="1"><g transform="translate(52.708769, 242.618005)"><g><path d="M 22.734375 -44.652344 C 10.167969 -44.652344 0 -34.484375 0 -21.917969 C 0 -9.351562 10.167969 0.816406 22.734375 0.816406 C 35.300781 0.816406 45.472656 -9.351562 45.472656 -21.917969 C 45.472656 -34.484375 35.300781 -44.652344 22.734375 -44.652344 Z M 32.554688 -4.089844 C 24.898438 0.117188 14.378906 -4.5 8.941406 -14.378906 C 3.507812 -24.195312 5.320312 -35.59375 12.917969 -39.804688 C 20.515625 -43.953125 31.09375 -39.335938 36.53125 -29.515625 C 41.90625 -19.636719 40.152344 -8.242188 32.554688 -4.089844 Z M 32.554688 -4.089844 "/></g></g></g><g fill="#ff914d" fill-opacity="1"><g transform="translate(103.143691, 242.618005)"><g><path d="M 7.714844 0 C 4.148438 -2.046875 3.332031 -6.722656 3.332031 -10.460938 L 3.332031 -37.816406 L 18.644531 -8.183594 L 21.214844 -8.183594 L 37.113281 -38.867188 L 37.113281 -7.773438 C 37.113281 -4.792969 36.9375 -2.222656 36.0625 0 L 44.945312 0 C 44.070312 -2.222656 43.894531 -4.792969 43.894531 -7.773438 C 43.894531 -12.566406 43.894531 -31.269531 43.894531 -36.0625 C 43.894531 -39.042969 44.070312 -41.613281 44.945312 -43.835938 L 37.113281 -43.835938 L 22.445312 -15.546875 L 7.832031 -43.835938 L 0.234375 -43.835938 L 1.050781 -42.199219 L 1.050781 -7.773438 C 1.050781 -4.792969 0.816406 -2.222656 0 0 Z M 7.714844 0 "/></g></g></g><g fill="#ff914d" fill-opacity="1"><g transform="translate(152.935763, 242.618005)"><g><path d="M 30.449219 0 L 30.859375 -6.664062 L 30.335938 -6.664062 C 29.867188 -5.4375 27.878906 -2.28125 22.621094 -2.28125 L 7.773438 -2.28125 L 7.773438 -18.9375 L 14.203125 -18.9375 C 19.464844 -18.9375 21.449219 -15.78125 21.917969 -14.554688 L 22.445312 -14.554688 C 22.445312 -18.234375 22.445312 -21.917969 22.445312 -25.601562 L 21.917969 -25.601562 C 21.449219 -24.371094 19.464844 -21.214844 14.203125 -21.214844 L 7.773438 -21.214844 L 7.773438 -41.554688 L 20.984375 -41.554688 C 26.242188 -41.554688 28.171875 -38.398438 28.699219 -37.171875 L 29.164062 -37.171875 L 28.757812 -43.835938 L 0 -43.835938 C 0.816406 -41.613281 1.050781 -39.042969 1.050781 -36.0625 C 1.050781 -31.269531 1.050781 -12.566406 1.050781 -7.773438 C 1.050781 -4.792969 0.816406 -2.222656 0 0 Z M 30.449219 0 "/></g></g></g><g fill="#ff914d" fill-opacity="1"><g transform="translate(188.701901, 242.618005)"><g><path d="M 22.792969 -44.652344 C 10.113281 -44.652344 0 -34.542969 0 -21.976562 C 0 -9.292969 10.113281 0.816406 22.792969 0.816406 C 33.082031 0.816406 42.199219 -6.253906 44.769531 -16.25 L 44.128906 -16.25 C 41.089844 -7.890625 33.550781 -1.753906 24.488281 -1.988281 C 15.253906 -2.28125 7.015625 -10.519531 7.015625 -21.976562 C 7.015625 -34.132812 15.839844 -42.492188 25.308594 -41.964844 C 33.898438 -41.496094 40.152344 -35.011719 42.316406 -27.527344 L 43.074219 -27.527344 L 43.074219 -37.582031 C 41.378906 -37.523438 38.984375 -39.160156 37.582031 -40.210938 C 32.847656 -43.425781 28.347656 -44.652344 22.792969 -44.652344 Z M 22.792969 -44.652344 "/></g></g></g><g fill="#ff914d" fill-opacity="1"><g transform="translate(238.318651, 242.618005)"><g><path d="M 23.90625 -43.835938 L 16.65625 -43.835938 L 3.625 -7.714844 C 2.6875 -5.144531 1.285156 -2.164062 0 0 L 7.65625 0 C 5.785156 -3.15625 5.261719 -5.550781 6.019531 -7.714844 C 7.070312 -10.578125 8.125 -12.917969 10.871094 -14.496094 C 14.902344 -16.890625 21.15625 -16.832031 25.25 -14.320312 C 27.644531 -12.800781 28.757812 -10.578125 29.808594 -7.597656 C 30.742188 -5.085938 31.738281 -2.046875 31.738281 0 L 40.621094 0 C 39.335938 -2.164062 37.875 -5.144531 36.9375 -7.714844 Z M 26.769531 -16.074219 C 21.625 -19.347656 14.144531 -19.347656 9.058594 -16.074219 L 17.886719 -40.445312 Z M 26.769531 -16.074219 "/></g></g></g><g fill="#ff914d" fill-opacity="1"><g transform="translate(283.78607, 242.618005)"><g><path d="M 17.300781 -43.835938 L 0 -43.835938 C 0.816406 -41.613281 1.050781 -39.042969 1.050781 -36.0625 C 1.050781 -31.269531 1.050781 -12.566406 1.050781 -7.773438 C 1.050781 -4.792969 0.816406 -2.222656 0 0 C 2.570312 0 6.253906 0 8.824219 0 C 8.007812 -2.222656 7.773438 -4.792969 7.773438 -7.773438 L 7.773438 -9 C 7.773438 -13.675781 10.402344 -16.480469 13.910156 -18.703125 L 21.097656 -5.203125 C 22.035156 -3.507812 22.675781 -1.871094 23.085938 0 L 32.378906 0 C 30.917969 -1.871094 28.816406 -5.203125 27.410156 -7.773438 L 19.871094 -21.859375 C 25.773438 -24.722656 31.5625 -27.644531 31.5625 -34.542969 C 31.5625 -39.628906 27.0625 -43.835938 17.300781 -43.835938 Z M 7.773438 -16.015625 L 7.773438 -41.789062 L 11.28125 -41.789062 C 18.292969 -41.789062 24.605469 -40.210938 24.78125 -34.835938 C 25.132812 -25.832031 12.683594 -24.3125 7.773438 -16.015625 Z M 7.773438 -16.015625 "/></g></g></g><g fill="#ff914d" fill-opacity="1"><g transform="translate(321.01324, 242.618005)"><g><path d="M 30.449219 0 L 30.859375 -6.664062 L 30.335938 -6.664062 C 29.867188 -5.4375 27.878906 -2.28125 22.621094 -2.28125 L 7.773438 -2.28125 L 7.773438 -18.9375 L 14.203125 -18.9375 C 19.464844 -18.9375 21.449219 -15.78125 21.917969 -14.554688 L 22.445312 -14.554688 C 22.445312 -18.234375 22.445312 -21.917969 22.445312 -25.601562 L 21.917969 -25.601562 C 21.449219 -24.371094 19.464844 -21.214844 14.203125 -21.214844 L 7.773438 -21.214844 L 7.773438 -41.554688 L 20.984375 -41.554688 C 26.242188 -41.554688 28.171875 -38.398438 28.699219 -37.171875 L 29.164062 -37.171875 L 28.757812 -43.835938 L 0 -43.835938 C 0.816406 -41.613281 1.050781 -39.042969 1.050781 -36.0625 C 1.050781 -31.269531 1.050781 -12.566406 1.050781 -7.773438 C 1.050781 -4.792969 0.816406 -2.222656 0 0 Z M 30.449219 0 "/></g></g></g></svg>