<svg xmlns="http://www.w3.org/2000/svg" xmlns:xlink="http://www.w3.org/1999/xlink" width="500" zoomAndPan="magnify" viewBox="0 0 375 374.999991" height="500" preserveAspectRatio="xMidYMid meet" version="1.0"><defs><g/></defs><g fill="#000000" fill-opacity="1"><g transform="translate(135.003075, 168.549716)"><g><path d="M 15.023438 -5.535156 C 15.023438 -13.527344 15.023438 -21.558594 15.023438 -29.589844 L 19.351562 -29.589844 C 23.097656 -29.589844 24.511719 -27.34375 24.84375 -26.46875 L 25.21875 -26.46875 L 24.929688 -31.214844 L 0.292969 -31.214844 L 0 -26.46875 L 0.375 -26.46875 C 0.707031 -27.34375 2.121094 -29.589844 5.828125 -29.589844 L 10.195312 -29.589844 C 10.195312 -21.558594 10.195312 -13.527344 10.195312 -5.535156 C 10.195312 -3.414062 10.070312 -1.582031 9.445312 0 L 15.730469 0 C 15.148438 -1.582031 15.023438 -3.414062 15.023438 -5.535156 Z M 15.023438 -5.535156 "/></g></g></g><g fill="#000000" fill-opacity="1"><g transform="translate(163.716196, 168.549716)"><g><path d="M 17.023438 -31.214844 L 11.859375 -31.214844 L 2.582031 -5.492188 C 1.914062 -3.664062 0.914062 -1.539062 0 0 L 5.453125 0 C 4.121094 -2.246094 3.746094 -3.953125 4.285156 -5.492188 C 5.035156 -7.53125 5.785156 -9.199219 7.742188 -10.320312 C 10.613281 -12.027344 15.066406 -11.984375 17.980469 -10.195312 C 19.683594 -9.113281 20.476562 -7.53125 21.226562 -5.410156 C 21.890625 -3.621094 22.597656 -1.457031 22.597656 0 L 28.925781 0 C 28.007812 -1.539062 26.96875 -3.664062 26.300781 -5.492188 Z M 19.0625 -11.445312 C 15.398438 -13.777344 10.070312 -13.777344 6.449219 -11.445312 L 12.734375 -28.800781 Z M 19.0625 -11.445312 "/></g></g></g><g fill="#000000" fill-opacity="1"><g transform="translate(196.091278, 168.549716)"><g><path d="M 16.898438 -17.269531 L 23.597656 -25.46875 C 25.46875 -27.757812 26.71875 -29.175781 29.007812 -31.214844 L 25.34375 -31.214844 C 24.636719 -29.714844 23.679688 -28.300781 22.804688 -27.050781 L 15.605469 -18.226562 L 9.199219 -27.425781 C 8.324219 -28.675781 7.65625 -29.714844 6.992188 -31.214844 L 0 -31.214844 C 1.207031 -30.089844 2.914062 -28.007812 3.871094 -26.636719 L 12.070312 -14.859375 L 12.070312 -5.535156 C 12.070312 -3.414062 11.945312 -1.582031 11.363281 0 L 17.644531 0 C 17.0625 -1.582031 16.898438 -3.414062 16.898438 -5.535156 Z M 16.898438 -17.269531 "/></g></g></g><g fill="#000000" fill-opacity="1"><g transform="translate(228.624166, 168.549716)"><g/></g></g><g fill="#1165d7" fill-opacity="1"><g transform="translate(5.546052, 226.299712)"><g><path d="M 0.75 -25.679688 L 0.75 -5.535156 C 0.75 -3.414062 0.582031 -1.582031 0 0 L 6.285156 0 C 5.703125 -1.582031 5.535156 -3.414062 5.535156 -5.535156 C 5.535156 -8.949219 5.535156 -22.265625 5.535156 -25.679688 C 5.535156 -27.800781 5.703125 -29.632812 6.285156 -31.214844 L 0 -31.214844 C 0.582031 -29.632812 0.75 -27.800781 0.75 -25.679688 Z M 0.75 -25.679688 "/></g></g></g><g fill="#1165d7" fill-opacity="1"><g transform="translate(15.408386, 226.299712)"><g><path d="M 20.601562 -31.214844 C 23.140625 -29.757812 23.722656 -26.425781 23.722656 -23.761719 L 23.722656 -7.324219 L 5.992188 -31.214844 C 3.996094 -31.214844 1.996094 -31.214844 0 -31.214844 L 0.75 -30.214844 L 0.75 -5.535156 C 0.75 -3.414062 0.582031 -1.582031 0 0 L 5.492188 0 C 2.953125 -1.457031 2.371094 -4.785156 2.371094 -7.449219 L 2.371094 -28.007812 L 23.179688 0 L 25.34375 0 L 25.34375 -25.679688 C 25.34375 -27.800781 25.511719 -29.632812 26.09375 -31.214844 Z M 20.601562 -31.214844 "/></g></g></g><g fill="#1165d7" fill-opacity="1"><g transform="translate(44.99539, 226.299712)"><g><path d="M 15.023438 -5.535156 C 15.023438 -13.527344 15.023438 -21.558594 15.023438 -29.589844 L 19.351562 -29.589844 C 23.097656 -29.589844 24.511719 -27.34375 24.84375 -26.46875 L 25.21875 -26.46875 L 24.929688 -31.214844 L 0.292969 -31.214844 L 0 -26.46875 L 0.375 -26.46875 C 0.707031 -27.34375 2.121094 -29.589844 5.828125 -29.589844 L 10.195312 -29.589844 C 10.195312 -21.558594 10.195312 -13.527344 10.195312 -5.535156 C 10.195312 -3.414062 10.070312 -1.582031 9.445312 0 L 15.730469 0 C 15.148438 -1.582031 15.023438 -3.414062 15.023438 -5.535156 Z M 15.023438 -5.535156 "/></g></g></g><g fill="#1165d7" fill-opacity="1"><g transform="translate(73.708511, 226.299712)"><g><path d="M 21.683594 0 L 21.972656 -4.746094 L 21.597656 -4.746094 C 21.265625 -3.871094 19.851562 -1.625 16.105469 -1.625 L 5.535156 -1.625 L 5.535156 -13.484375 L 10.113281 -13.484375 C 13.859375 -13.484375 15.273438 -11.238281 15.605469 -10.363281 L 15.980469 -10.363281 C 15.980469 -12.984375 15.980469 -15.605469 15.980469 -18.226562 L 15.605469 -18.226562 C 15.273438 -17.355469 13.859375 -15.105469 10.113281 -15.105469 L 5.535156 -15.105469 L 5.535156 -29.589844 L 14.941406 -29.589844 C 18.6875 -29.589844 20.058594 -27.34375 20.433594 -26.46875 L 20.765625 -26.46875 L 20.476562 -31.214844 L 0 -31.214844 C 0.582031 -29.632812 0.75 -27.800781 0.75 -25.679688 C 0.75 -22.265625 0.75 -8.949219 0.75 -5.535156 C 0.75 -3.414062 0.582031 -1.582031 0 0 Z M 21.683594 0 "/></g></g></g><g fill="#1165d7" fill-opacity="1"><g transform="translate(99.175802, 226.299712)"><g><path d="M 12.320312 -31.214844 L 0 -31.214844 C 0.582031 -29.632812 0.75 -27.800781 0.75 -25.679688 C 0.75 -22.265625 0.75 -8.949219 0.75 -5.535156 C 0.75 -3.414062 0.582031 -1.582031 0 0 C 1.832031 0 4.453125 0 6.285156 0 C 5.703125 -1.582031 5.535156 -3.414062 5.535156 -5.535156 L 5.535156 -6.410156 C 5.535156 -9.738281 7.40625 -11.734375 9.90625 -13.316406 L 15.023438 -3.703125 C 15.691406 -2.496094 16.148438 -1.332031 16.4375 0 L 23.054688 0 C 22.015625 -1.332031 20.515625 -3.703125 19.519531 -5.535156 L 14.148438 -15.566406 C 18.351562 -17.605469 22.472656 -19.683594 22.472656 -24.597656 C 22.472656 -28.214844 19.269531 -31.214844 12.320312 -31.214844 Z M 5.535156 -11.402344 L 5.535156 -29.757812 L 8.03125 -29.757812 C 13.027344 -29.757812 17.519531 -28.632812 17.644531 -24.804688 C 17.894531 -18.394531 9.03125 -17.3125 5.535156 -11.402344 Z M 5.535156 -11.402344 "/></g></g></g><g fill="#1165d7" fill-opacity="1"><g transform="translate(125.683419, 226.299712)"><g><path d="M 0.75 -25.679688 L 0.75 -5.535156 C 0.75 -3.414062 0.582031 -1.582031 0 0 L 6.285156 0 C 5.703125 -1.582031 5.535156 -3.414062 5.535156 -5.535156 C 5.535156 -8.949219 5.535156 -22.265625 5.535156 -25.679688 C 5.535156 -27.800781 5.703125 -29.632812 6.285156 -31.214844 L 0 -31.214844 C 0.582031 -29.632812 0.75 -27.800781 0.75 -25.679688 Z M 0.75 -25.679688 "/></g></g></g><g fill="#1165d7" fill-opacity="1"><g transform="translate(135.545753, 226.299712)"><g><path d="M 16.1875 -31.796875 C 7.242188 -31.796875 0 -24.554688 0 -15.605469 C 0 -6.660156 7.242188 0.582031 16.1875 0.582031 C 25.136719 0.582031 32.378906 -6.660156 32.378906 -15.605469 C 32.378906 -24.554688 25.136719 -31.796875 16.1875 -31.796875 Z M 23.179688 -2.914062 C 17.730469 0.0820312 10.238281 -3.203125 6.367188 -10.238281 C 2.496094 -17.230469 3.789062 -25.34375 9.199219 -28.339844 C 14.609375 -31.296875 22.140625 -28.007812 26.011719 -21.015625 C 29.839844 -13.984375 28.589844 -5.867188 23.179688 -2.914062 Z M 23.179688 -2.914062 "/></g></g></g><g fill="#1165d7" fill-opacity="1"><g transform="translate(171.457963, 226.299712)"><g><path d="M 12.320312 -31.214844 L 0 -31.214844 C 0.582031 -29.632812 0.75 -27.800781 0.75 -25.679688 C 0.75 -22.265625 0.75 -8.949219 0.75 -5.535156 C 0.75 -3.414062 0.582031 -1.582031 0 0 C 1.832031 0 4.453125 0 6.285156 0 C 5.703125 -1.582031 5.535156 -3.414062 5.535156 -5.535156 L 5.535156 -6.410156 C 5.535156 -9.738281 7.40625 -11.734375 9.90625 -13.316406 L 15.023438 -3.703125 C 15.691406 -2.496094 16.148438 -1.332031 16.4375 0 L 23.054688 0 C 22.015625 -1.332031 20.515625 -3.703125 19.519531 -5.535156 L 14.148438 -15.566406 C 18.351562 -17.605469 22.472656 -19.683594 22.472656 -24.597656 C 22.472656 -28.214844 19.269531 -31.214844 12.320312 -31.214844 Z M 5.535156 -11.402344 L 5.535156 -29.757812 L 8.03125 -29.757812 C 13.027344 -29.757812 17.519531 -28.632812 17.644531 -24.804688 C 17.894531 -18.394531 9.03125 -17.3125 5.535156 -11.402344 Z M 5.535156 -11.402344 "/></g></g></g><g fill="#1165d7" fill-opacity="1"><g transform="translate(197.96558, 226.299712)"><g/></g></g><g fill="#1165d7" fill-opacity="1"><g transform="translate(212.322146, 226.299712)"><g><path d="M 0 0 C 4.121094 0 8.242188 0 12.359375 0 C 20.976562 0 28.714844 -5.367188 28.714844 -15.605469 C 28.714844 -25.84375 20.976562 -31.214844 12.359375 -31.214844 C 8.242188 -31.214844 4.121094 -31.214844 0 -31.214844 C 0.582031 -29.632812 0.75 -27.800781 0.75 -25.679688 C 0.75 -22.265625 0.75 -8.949219 0.75 -5.535156 C 0.75 -3.414062 0.582031 -1.582031 0 0 Z M 5.535156 -29.589844 L 12.359375 -29.589844 C 18.269531 -29.589844 23.804688 -24.222656 23.804688 -15.605469 C 23.804688 -6.992188 18.269531 -1.625 12.359375 -1.625 L 5.535156 -1.625 Z M 5.535156 -29.589844 "/></g></g></g><g fill="#1165d7" fill-opacity="1"><g transform="translate(244.572396, 226.299712)"><g><path d="M 21.683594 0 L 21.972656 -4.746094 L 21.597656 -4.746094 C 21.265625 -3.871094 19.851562 -1.625 16.105469 -1.625 L 5.535156 -1.625 L 5.535156 -13.484375 L 10.113281 -13.484375 C 13.859375 -13.484375 15.273438 -11.238281 15.605469 -10.363281 L 15.980469 -10.363281 C 15.980469 -12.984375 15.980469 -15.605469 15.980469 -18.226562 L 15.605469 -18.226562 C 15.273438 -17.355469 13.859375 -15.105469 10.113281 -15.105469 L 5.535156 -15.105469 L 5.535156 -29.589844 L 14.941406 -29.589844 C 18.6875 -29.589844 20.058594 -27.34375 20.433594 -26.46875 L 20.765625 -26.46875 L 20.476562 -31.214844 L 0 -31.214844 C 0.582031 -29.632812 0.75 -27.800781 0.75 -25.679688 C 0.75 -22.265625 0.75 -8.949219 0.75 -5.535156 C 0.75 -3.414062 0.582031 -1.582031 0 0 Z M 21.683594 0 "/></g></g></g><g fill="#1165d7" fill-opacity="1"><g transform="translate(270.039687, 226.299712)"><g><path d="M 22.015625 -22.679688 L 22.390625 -22.679688 L 22.390625 -28.675781 C 21.933594 -28.464844 21.515625 -28.800781 21.015625 -29.132812 C 18.601562 -30.878906 15.441406 -31.796875 11.902344 -31.796875 C 9.074219 -31.796875 5.953125 -31.089844 3.828125 -29.339844 C -0.125 -26.050781 0.75 -20.183594 5.117188 -17.730469 C 7.949219 -16.1875 11.277344 -15.523438 14.316406 -14.316406 C 17.0625 -13.191406 19.933594 -11.445312 19.933594 -8.074219 C 19.933594 -4.371094 17.023438 -1.125 12.402344 -1.125 C 9.945312 -1.125 7.742188 -1.707031 5.742188 -3.078125 C 1.664062 -5.910156 1.207031 -8.988281 1.207031 -13.652344 L 0.832031 -13.652344 L 0 -3.828125 C 0.582031 -3.996094 1.164062 -3.578125 1.5 -3.289062 C 4.328125 -0.832031 8.949219 0.582031 12.234375 0.582031 C 15.316406 0.582031 18.601562 -0.292969 21.101562 -2.207031 C 26.09375 -6.035156 26.34375 -12.941406 20.976562 -16.5625 C 17.480469 -18.9375 12.402344 -19.933594 8.824219 -21.476562 C 6.367188 -22.558594 5.828125 -25.054688 6.574219 -26.925781 C 7.617188 -29.339844 10.777344 -30.171875 12.777344 -30.132812 C 17.8125 -30.132812 21.808594 -27.800781 22.015625 -22.679688 Z M 22.015625 -22.679688 "/></g></g></g><g fill="#1165d7" fill-opacity="1"><g transform="translate(298.419889, 226.299712)"><g><path d="M 0.75 -25.679688 L 0.75 -5.535156 C 0.75 -3.414062 0.582031 -1.582031 0 0 L 6.285156 0 C 5.703125 -1.582031 5.535156 -3.414062 5.535156 -5.535156 C 5.535156 -8.949219 5.535156 -22.265625 5.535156 -25.679688 C 5.535156 -27.800781 5.703125 -29.632812 6.285156 -31.214844 L 0 -31.214844 C 0.582031 -29.632812 0.75 -27.800781 0.75 -25.679688 Z M 0.75 -25.679688 "/></g></g></g><g fill="#1165d7" fill-opacity="1"><g transform="translate(308.282223, 226.299712)"><g><path d="M 16.230469 -31.796875 C 7.199219 -31.796875 0 -24.597656 0 -15.648438 C 0 -6.617188 7.199219 0.582031 16.230469 0.582031 C 19.519531 0.582031 22.640625 -0.375 25.304688 -2.164062 C 27.34375 -3.578125 29.464844 -2.996094 30.007812 -0.457031 L 30.378906 -0.457031 L 30.378906 -9.570312 C 30.378906 -11.734375 30.503906 -13.652344 31.089844 -15.191406 L 24.597656 -15.191406 C 25.261719 -13.652344 25.429688 -11.734375 25.429688 -9.570312 L 25.429688 -5.492188 C 22.804688 -2.039062 17.894531 -0.707031 13.859375 -2.082031 C 8.90625 -3.871094 4.953125 -8.988281 4.953125 -15.648438 C 4.953125 -24.304688 11.320312 -30.214844 18.019531 -29.882812 C 24.136719 -29.546875 28.675781 -24.929688 30.132812 -19.558594 L 30.671875 -19.558594 L 30.671875 -26.800781 C 29.796875 -26.761719 28.464844 -27.425781 27.507812 -28.132812 C 23.722656 -30.671875 20.726562 -31.796875 16.230469 -31.796875 Z M 16.230469 -31.796875 "/></g></g></g><g fill="#1165d7" fill-opacity="1"><g transform="translate(342.86281, 226.299712)"><g><path d="M 20.601562 -31.214844 C 23.140625 -29.757812 23.722656 -26.425781 23.722656 -23.761719 L 23.722656 -7.324219 L 5.992188 -31.214844 C 3.996094 -31.214844 1.996094 -31.214844 0 -31.214844 L 0.75 -30.214844 L 0.75 -5.535156 C 0.75 -3.414062 0.582031 -1.582031 0 0 L 5.492188 0 C 2.953125 -1.457031 2.371094 -4.785156 2.371094 -7.449219 L 2.371094 -28.007812 L 23.179688 0 L 25.34375 0 L 25.34375 -25.679688 C 25.34375 -27.800781 25.511719 -29.632812 26.09375 -31.214844 Z M 20.601562 -31.214844 "/></g></g></g></svg>