<svg xmlns="http://www.w3.org/2000/svg" xmlns:xlink="http://www.w3.org/1999/xlink" width="500" zoomAndPan="magnify" viewBox="0 0 375 374.999991" height="500" preserveAspectRatio="xMidYMid meet" version="1.0"><defs><g/></defs><g fill="#000000" fill-opacity="1"><g transform="translate(90.949217, 162.525985)"><g><path d="M 20.085938 -7.402344 C 20.085938 -18.082031 20.085938 -28.824219 20.085938 -39.5625 L 25.875 -39.5625 C 30.882812 -39.5625 32.773438 -36.558594 33.21875 -35.386719 L 33.71875 -35.386719 L 33.328125 -41.730469 L 0.390625 -41.730469 L 0 -35.386719 L 0.5 -35.386719 C 0.945312 -36.558594 2.835938 -39.5625 7.789062 -39.5625 L 13.632812 -39.5625 C 13.632812 -28.824219 13.632812 -18.082031 13.632812 -7.402344 C 13.632812 -4.5625 13.464844 -2.113281 12.628906 0 L 21.03125 0 C 20.253906 -2.113281 20.085938 -4.5625 20.085938 -7.402344 Z M 20.085938 -7.402344 "/></g></g></g><g fill="#000000" fill-opacity="1"><g transform="translate(129.341259, 162.525985)"><g><path d="M 22.757812 -41.730469 L 15.859375 -41.730469 L 3.449219 -7.34375 C 2.558594 -4.898438 1.222656 -2.058594 0 0 L 7.289062 0 C 5.507812 -3.003906 5.007812 -5.285156 5.730469 -7.34375 C 6.734375 -10.070312 7.734375 -12.296875 10.347656 -13.800781 C 14.1875 -16.082031 20.144531 -16.023438 24.039062 -13.632812 C 26.320312 -12.1875 27.375 -10.070312 28.378906 -7.234375 C 29.269531 -4.839844 30.214844 -1.949219 30.214844 0 L 38.671875 0 C 37.449219 -2.058594 36.054688 -4.898438 35.167969 -7.34375 Z M 25.484375 -15.300781 C 20.585938 -18.417969 13.464844 -18.417969 8.625 -15.300781 L 17.027344 -38.503906 Z M 25.484375 -15.300781 "/></g></g></g><g fill="#000000" fill-opacity="1"><g transform="translate(172.629678, 162.525985)"><g><path d="M 7.402344 -34.332031 C 7.402344 -37.167969 7.621094 -39.617188 8.402344 -41.730469 L 0 -41.730469 C 0.777344 -39.617188 1 -37.167969 1 -34.332031 C 1 -29.769531 1 -11.964844 1 -7.402344 C 1 -4.5625 0.777344 -2.113281 0 0 L 27.597656 0 L 27.988281 -6.34375 L 27.488281 -6.34375 C 27.042969 -5.175781 25.152344 -2.171875 20.199219 -2.171875 L 7.402344 -2.171875 Z M 7.402344 -34.332031 "/></g></g></g><g fill="#000000" fill-opacity="1"><g transform="translate(205.346366, 162.525985)"><g><path d="M 22.589844 -23.089844 L 31.550781 -34.054688 C 34.054688 -37.113281 35.722656 -39.003906 38.78125 -41.730469 L 33.886719 -41.730469 C 32.941406 -39.730469 31.660156 -37.835938 30.492188 -36.167969 L 20.867188 -24.371094 L 12.296875 -36.667969 C 11.128906 -38.335938 10.238281 -39.730469 9.347656 -41.730469 L 0 -41.730469 C 1.613281 -40.230469 3.894531 -37.449219 5.175781 -35.609375 L 16.136719 -19.863281 L 16.136719 -7.402344 C 16.136719 -4.5625 15.96875 -2.113281 15.191406 0 L 23.59375 0 C 22.8125 -2.113281 22.589844 -4.5625 22.589844 -7.402344 Z M 22.589844 -23.089844 "/></g></g></g><g fill="#000000" fill-opacity="1"><g transform="translate(248.857337, 162.525985)"><g><path d="M 22.757812 -41.730469 L 15.859375 -41.730469 L 3.449219 -7.34375 C 2.558594 -4.898438 1.222656 -2.058594 0 0 L 7.289062 0 C 5.507812 -3.003906 5.007812 -5.285156 5.730469 -7.34375 C 6.734375 -10.070312 7.734375 -12.296875 10.347656 -13.800781 C 14.1875 -16.082031 20.144531 -16.023438 24.039062 -13.632812 C 26.320312 -12.1875 27.375 -10.070312 28.378906 -7.234375 C 29.269531 -4.839844 30.214844 -1.949219 30.214844 0 L 38.671875 0 C 37.449219 -2.058594 36.054688 -4.898438 35.167969 -7.34375 Z M 25.484375 -15.300781 C 20.585938 -18.417969 13.464844 -18.417969 8.625 -15.300781 L 17.027344 -38.503906 Z M 25.484375 -15.300781 "/></g></g></g><g fill="#00c2cb" fill-opacity="1"><g transform="translate(8.601566, 239.77598)"><g><path d="M 1 -34.332031 L 1 -7.402344 C 1 -4.5625 0.777344 -2.113281 0 0 L 8.402344 0 C 7.621094 -2.113281 7.402344 -4.5625 7.402344 -7.402344 C 7.402344 -11.964844 7.402344 -29.769531 7.402344 -34.332031 C 7.402344 -37.167969 7.621094 -39.617188 8.402344 -41.730469 L 0 -41.730469 C 0.777344 -39.617188 1 -37.167969 1 -34.332031 Z M 1 -34.332031 "/></g></g></g><g fill="#00c2cb" fill-opacity="1"><g transform="translate(21.788398, 239.77598)"><g><path d="M 27.542969 -41.730469 C 30.9375 -39.785156 31.714844 -35.332031 31.714844 -31.773438 L 31.714844 -9.792969 L 8.011719 -41.730469 C 5.339844 -41.730469 2.671875 -41.730469 0 -41.730469 L 1 -40.394531 L 1 -7.402344 C 1 -4.5625 0.777344 -2.113281 0 0 L 7.34375 0 C 3.949219 -1.949219 3.171875 -6.398438 3.171875 -9.960938 L 3.171875 -37.449219 L 30.992188 0 L 33.886719 0 L 33.886719 -34.332031 C 33.886719 -37.167969 34.109375 -39.617188 34.886719 -41.730469 Z M 27.542969 -41.730469 "/></g></g></g><g fill="#00c2cb" fill-opacity="1"><g transform="translate(61.348893, 239.77598)"><g><path d="M 15.914062 0 L 22.757812 0 L 35.167969 -34.332031 C 36.054688 -36.835938 37.449219 -39.671875 38.617188 -41.730469 L 31.328125 -41.730469 C 32.664062 -39.507812 33.773438 -36.890625 32.882812 -34.441406 L 21.589844 -3.226562 L 10.292969 -34.441406 C 9.402344 -36.890625 8.457031 -39.785156 8.402344 -41.730469 L 0 -41.730469 C 1.222656 -39.671875 2.558594 -36.835938 3.449219 -34.332031 Z M 15.914062 0 "/></g></g></g><g fill="#00c2cb" fill-opacity="1"><g transform="translate(104.692941, 239.77598)"><g><path d="M 28.988281 0 L 29.378906 -6.34375 L 28.878906 -6.34375 C 28.433594 -5.175781 26.542969 -2.171875 21.535156 -2.171875 L 7.402344 -2.171875 L 7.402344 -18.027344 L 13.519531 -18.027344 C 18.527344 -18.027344 20.421875 -15.023438 20.867188 -13.855469 L 21.367188 -13.855469 C 21.367188 -17.359375 21.367188 -20.867188 21.367188 -24.371094 L 20.867188 -24.371094 C 20.421875 -23.203125 18.527344 -20.199219 13.519531 -20.199219 L 7.402344 -20.199219 L 7.402344 -39.5625 L 19.976562 -39.5625 C 24.984375 -39.5625 26.820312 -36.558594 27.320312 -35.386719 L 27.765625 -35.386719 L 27.375 -41.730469 L 0 -41.730469 C 0.777344 -39.617188 1 -37.167969 1 -34.332031 C 1 -29.769531 1 -11.964844 1 -7.402344 C 1 -4.5625 0.777344 -2.113281 0 0 Z M 28.988281 0 "/></g></g></g><g fill="#00c2cb" fill-opacity="1"><g transform="translate(138.745006, 239.77598)"><g><path d="M 29.433594 -30.324219 L 29.9375 -30.324219 L 29.9375 -38.335938 C 29.324219 -38.058594 28.765625 -38.503906 28.097656 -38.949219 C 24.871094 -41.285156 20.644531 -42.511719 15.914062 -42.511719 C 12.128906 -42.511719 7.957031 -41.566406 5.117188 -39.226562 C -0.167969 -34.832031 1 -26.988281 6.84375 -23.703125 C 10.628906 -21.644531 15.078125 -20.753906 19.140625 -19.140625 C 22.8125 -17.640625 26.652344 -15.300781 26.652344 -10.792969 C 26.652344 -5.84375 22.757812 -1.503906 16.582031 -1.503906 C 13.296875 -1.503906 10.347656 -2.28125 7.679688 -4.117188 C 2.226562 -7.902344 1.613281 -12.019531 1.613281 -18.25 L 1.113281 -18.25 L 0 -5.117188 C 0.777344 -5.339844 1.558594 -4.785156 2.003906 -4.394531 C 5.785156 -1.113281 11.964844 0.777344 16.359375 0.777344 C 20.476562 0.777344 24.871094 -0.390625 28.210938 -2.949219 C 34.886719 -8.066406 35.222656 -17.304688 28.042969 -22.144531 C 23.371094 -25.316406 16.582031 -26.652344 11.796875 -28.710938 C 8.511719 -30.160156 7.789062 -33.496094 8.792969 -36 C 10.183594 -39.226562 14.410156 -40.339844 17.082031 -40.285156 C 23.816406 -40.285156 29.15625 -37.167969 29.433594 -30.324219 Z M 29.433594 -30.324219 "/></g></g></g><g fill="#00c2cb" fill-opacity="1"><g transform="translate(176.691918, 239.77598)"><g><path d="M 20.085938 -7.402344 C 20.085938 -18.082031 20.085938 -28.824219 20.085938 -39.5625 L 25.875 -39.5625 C 30.882812 -39.5625 32.773438 -36.558594 33.21875 -35.386719 L 33.71875 -35.386719 L 33.328125 -41.730469 L 0.390625 -41.730469 L 0 -35.386719 L 0.5 -35.386719 C 0.945312 -36.558594 2.835938 -39.5625 7.789062 -39.5625 L 13.632812 -39.5625 C 13.632812 -28.824219 13.632812 -18.082031 13.632812 -7.402344 C 13.632812 -4.5625 13.464844 -2.113281 12.628906 0 L 21.03125 0 C 20.253906 -2.113281 20.085938 -4.5625 20.085938 -7.402344 Z M 20.085938 -7.402344 "/></g></g></g><g fill="#00c2cb" fill-opacity="1"><g transform="translate(215.083959, 239.77598)"><g><path d="M 7.34375 0 C 3.949219 -1.949219 3.171875 -6.398438 3.171875 -9.960938 L 3.171875 -36 L 17.75 -7.789062 L 20.199219 -7.789062 L 35.332031 -37.003906 L 35.332031 -7.402344 C 35.332031 -4.5625 35.167969 -2.113281 34.332031 0 L 42.789062 0 C 41.953125 -2.113281 41.789062 -4.5625 41.789062 -7.402344 C 41.789062 -11.964844 41.789062 -29.769531 41.789062 -34.332031 C 41.789062 -37.167969 41.953125 -39.617188 42.789062 -41.730469 L 35.332031 -41.730469 L 21.367188 -14.800781 L 7.457031 -41.730469 L 0.222656 -41.730469 L 1 -40.175781 L 1 -7.402344 C 1 -4.5625 0.777344 -2.113281 0 0 Z M 7.34375 0 "/></g></g></g><g fill="#00c2cb" fill-opacity="1"><g transform="translate(262.489779, 239.77598)"><g><path d="M 28.988281 0 L 29.378906 -6.34375 L 28.878906 -6.34375 C 28.433594 -5.175781 26.542969 -2.171875 21.535156 -2.171875 L 7.402344 -2.171875 L 7.402344 -18.027344 L 13.519531 -18.027344 C 18.527344 -18.027344 20.421875 -15.023438 20.867188 -13.855469 L 21.367188 -13.855469 C 21.367188 -17.359375 21.367188 -20.867188 21.367188 -24.371094 L 20.867188 -24.371094 C 20.421875 -23.203125 18.527344 -20.199219 13.519531 -20.199219 L 7.402344 -20.199219 L 7.402344 -39.5625 L 19.976562 -39.5625 C 24.984375 -39.5625 26.820312 -36.558594 27.320312 -35.386719 L 27.765625 -35.386719 L 27.375 -41.730469 L 0 -41.730469 C 0.777344 -39.617188 1 -37.167969 1 -34.332031 C 1 -29.769531 1 -11.964844 1 -7.402344 C 1 -4.5625 0.777344 -2.113281 0 0 Z M 28.988281 0 "/></g></g></g><g fill="#00c2cb" fill-opacity="1"><g transform="translate(296.541855, 239.77598)"><g><path d="M 27.542969 -41.730469 C 30.9375 -39.785156 31.714844 -35.332031 31.714844 -31.773438 L 31.714844 -9.792969 L 8.011719 -41.730469 C 5.339844 -41.730469 2.671875 -41.730469 0 -41.730469 L 1 -40.394531 L 1 -7.402344 C 1 -4.5625 0.777344 -2.113281 0 0 L 7.34375 0 C 3.949219 -1.949219 3.171875 -6.398438 3.171875 -9.960938 L 3.171875 -37.449219 L 30.992188 0 L 33.886719 0 L 33.886719 -34.332031 C 33.886719 -37.167969 34.109375 -39.617188 34.886719 -41.730469 Z M 27.542969 -41.730469 "/></g></g></g><g fill="#00c2cb" fill-opacity="1"><g transform="translate(336.102338, 239.77598)"><g><path d="M 20.085938 -7.402344 C 20.085938 -18.082031 20.085938 -28.824219 20.085938 -39.5625 L 25.875 -39.5625 C 30.882812 -39.5625 32.773438 -36.558594 33.21875 -35.386719 L 33.71875 -35.386719 L 33.328125 -41.730469 L 0.390625 -41.730469 L 0 -35.386719 L 0.5 -35.386719 C 0.945312 -36.558594 2.835938 -39.5625 7.789062 -39.5625 L 13.632812 -39.5625 C 13.632812 -28.824219 13.632812 -18.082031 13.632812 -7.402344 C 13.632812 -4.5625 13.464844 -2.113281 12.628906 0 L 21.03125 0 C 20.253906 -2.113281 20.085938 -4.5625 20.085938 -7.402344 Z M 20.085938 -7.402344 "/></g></g></g></svg>