<svg xmlns="http://www.w3.org/2000/svg" xmlns:xlink="http://www.w3.org/1999/xlink" width="500" zoomAndPan="magnify" viewBox="0 0 375 374.999991" height="500" preserveAspectRatio="xMidYMid meet" version="1.0"><defs><g/></defs><g fill="#000000" fill-opacity="1"><g transform="translate(121.688534, 160.455635)"><g><path d="M 21.597656 -7.957031 C 21.597656 -19.445312 21.597656 -30.992188 21.597656 -42.539062 L 27.820312 -42.539062 C 33.203125 -42.539062 35.238281 -39.308594 35.71875 -38.050781 L 36.253906 -38.050781 L 35.835938 -44.871094 L 0.417969 -44.871094 L 0 -38.050781 L 0.539062 -38.050781 C 1.015625 -39.308594 3.050781 -42.539062 8.375 -42.539062 L 14.65625 -42.539062 C 14.65625 -30.992188 14.65625 -19.445312 14.65625 -7.957031 C 14.65625 -4.90625 14.476562 -2.273438 13.582031 0 L 22.613281 0 C 21.777344 -2.273438 21.597656 -4.90625 21.597656 -7.957031 Z M 21.597656 -7.957031 "/></g></g></g><g fill="#000000" fill-opacity="1"><g transform="translate(162.96721, 160.455635)"><g><path d="M 24.46875 -44.871094 L 17.050781 -44.871094 L 3.710938 -7.898438 C 2.753906 -5.265625 1.316406 -2.214844 0 0 L 7.835938 0 C 5.921875 -3.230469 5.382812 -5.683594 6.164062 -7.898438 C 7.238281 -10.828125 8.316406 -13.222656 11.128906 -14.835938 C 15.257812 -17.289062 21.65625 -17.230469 25.84375 -14.65625 C 28.296875 -13.101562 29.433594 -10.828125 30.511719 -7.777344 C 31.46875 -5.203125 32.488281 -2.09375 32.488281 0 L 41.582031 0 C 40.265625 -2.214844 38.769531 -5.265625 37.8125 -7.898438 Z M 27.402344 -16.453125 C 22.136719 -19.804688 14.476562 -19.804688 9.273438 -16.453125 L 18.308594 -41.402344 Z M 27.402344 -16.453125 "/></g></g></g><g fill="#000000" fill-opacity="1"><g transform="translate(209.510409, 160.455635)"><g><path d="M 24.289062 -24.828125 L 33.921875 -36.613281 C 36.613281 -39.90625 38.410156 -41.9375 41.699219 -44.871094 L 36.433594 -44.871094 C 35.417969 -42.71875 34.042969 -40.683594 32.785156 -38.886719 L 22.433594 -26.203125 L 13.222656 -39.425781 C 11.964844 -41.222656 11.007812 -42.71875 10.050781 -44.871094 L 0 -44.871094 C 1.734375 -43.253906 4.1875 -40.265625 5.5625 -38.289062 L 17.351562 -21.359375 L 17.351562 -7.957031 C 17.351562 -4.90625 17.171875 -2.273438 16.332031 0 L 25.367188 0 C 24.527344 -2.273438 24.289062 -4.90625 24.289062 -7.957031 Z M 24.289062 -24.828125 "/></g></g></g><g fill="#ffbd59" fill-opacity="1"><g transform="translate(5.063541, 243.70563)"><g><path d="M 17.707031 -44.871094 L 0 -44.871094 C 0.835938 -42.597656 1.078125 -39.964844 1.078125 -36.914062 C 1.078125 -32.007812 1.078125 -12.863281 1.078125 -7.957031 C 1.078125 -4.90625 0.835938 -2.273438 0 0 C 2.632812 0 6.402344 0 9.035156 0 C 8.195312 -2.273438 7.957031 -4.90625 7.957031 -7.957031 L 7.957031 -9.214844 C 7.957031 -23.570312 32.308594 -21 32.308594 -35.359375 C 32.308594 -40.5625 27.699219 -44.871094 17.707031 -44.871094 Z M 7.957031 -16.394531 L 7.957031 -42.777344 L 11.546875 -42.777344 C 18.726562 -42.777344 25.1875 -41.160156 25.367188 -35.65625 C 25.726562 -26.445312 12.984375 -24.886719 7.957031 -16.394531 Z M 7.957031 -16.394531 "/></g></g></g><g fill="#ffbd59" fill-opacity="1"><g transform="translate(42.333993, 243.70563)"><g><path d="M 31.171875 0 L 31.589844 -6.820312 L 31.050781 -6.820312 C 30.570312 -5.5625 28.539062 -2.332031 23.152344 -2.332031 L 7.957031 -2.332031 L 7.957031 -19.382812 L 14.539062 -19.382812 C 19.921875 -19.382812 21.957031 -16.152344 22.433594 -14.898438 L 22.972656 -14.898438 C 22.972656 -18.667969 22.972656 -22.433594 22.972656 -26.203125 L 22.433594 -26.203125 C 21.957031 -24.949219 19.921875 -21.71875 14.539062 -21.71875 L 7.957031 -21.71875 L 7.957031 -42.539062 L 21.476562 -42.539062 C 26.863281 -42.539062 28.835938 -39.308594 29.375 -38.050781 L 29.855469 -38.050781 L 29.433594 -44.871094 L 0 -44.871094 C 0.835938 -42.597656 1.078125 -39.964844 1.078125 -36.914062 C 1.078125 -32.007812 1.078125 -12.863281 1.078125 -7.957031 C 1.078125 -4.90625 0.835938 -2.273438 0 0 Z M 31.171875 0 "/></g></g></g><g fill="#ffbd59" fill-opacity="1"><g transform="translate(78.946387, 243.70563)"><g><path d="M 21.597656 -7.957031 C 21.597656 -19.445312 21.597656 -30.992188 21.597656 -42.539062 L 27.820312 -42.539062 C 33.203125 -42.539062 35.238281 -39.308594 35.71875 -38.050781 L 36.253906 -38.050781 L 35.835938 -44.871094 L 0.417969 -44.871094 L 0 -38.050781 L 0.539062 -38.050781 C 1.015625 -39.308594 3.050781 -42.539062 8.375 -42.539062 L 14.65625 -42.539062 C 14.65625 -30.992188 14.65625 -19.445312 14.65625 -7.957031 C 14.65625 -4.90625 14.476562 -2.273438 13.582031 0 L 22.613281 0 C 21.777344 -2.273438 21.597656 -4.90625 21.597656 -7.957031 Z M 21.597656 -7.957031 "/></g></g></g><g fill="#ffbd59" fill-opacity="1"><g transform="translate(120.225063, 243.70563)"><g><path d="M 17.707031 -44.871094 L 0 -44.871094 C 0.835938 -42.597656 1.078125 -39.964844 1.078125 -36.914062 C 1.078125 -32.007812 1.078125 -12.863281 1.078125 -7.957031 C 1.078125 -4.90625 0.835938 -2.273438 0 0 C 2.632812 0 6.402344 0 9.035156 0 C 8.195312 -2.273438 7.957031 -4.90625 7.957031 -7.957031 L 7.957031 -9.214844 C 7.957031 -14 10.648438 -16.871094 14.238281 -19.144531 L 21.597656 -5.324219 C 22.554688 -3.589844 23.214844 -1.914062 23.632812 0 L 33.144531 0 C 31.648438 -1.914062 29.496094 -5.324219 28.058594 -7.957031 L 20.339844 -22.375 C 26.382812 -25.308594 32.308594 -28.296875 32.308594 -35.359375 C 32.308594 -40.5625 27.699219 -44.871094 17.707031 -44.871094 Z M 7.957031 -16.394531 L 7.957031 -42.777344 L 11.546875 -42.777344 C 18.726562 -42.777344 25.1875 -41.160156 25.367188 -35.65625 C 25.726562 -26.445312 12.984375 -24.886719 7.957031 -16.394531 Z M 7.957031 -16.394531 "/></g></g></g><g fill="#ffbd59" fill-opacity="1"><g transform="translate(158.333051, 243.70563)"><g><path d="M 31.171875 0 L 31.589844 -6.820312 L 31.050781 -6.820312 C 30.570312 -5.5625 28.539062 -2.332031 23.152344 -2.332031 L 7.957031 -2.332031 L 7.957031 -19.382812 L 14.539062 -19.382812 C 19.921875 -19.382812 21.957031 -16.152344 22.433594 -14.898438 L 22.972656 -14.898438 C 22.972656 -18.667969 22.972656 -22.433594 22.972656 -26.203125 L 22.433594 -26.203125 C 21.957031 -24.949219 19.921875 -21.71875 14.539062 -21.71875 L 7.957031 -21.71875 L 7.957031 -42.539062 L 21.476562 -42.539062 C 26.863281 -42.539062 28.835938 -39.308594 29.375 -38.050781 L 29.855469 -38.050781 L 29.433594 -44.871094 L 0 -44.871094 C 0.835938 -42.597656 1.078125 -39.964844 1.078125 -36.914062 C 1.078125 -32.007812 1.078125 -12.863281 1.078125 -7.957031 C 1.078125 -4.90625 0.835938 -2.273438 0 0 Z M 31.171875 0 "/></g></g></g><g fill="#ffbd59" fill-opacity="1"><g transform="translate(194.945445, 243.70563)"><g><path d="M 7.957031 -36.914062 C 7.957031 -39.964844 8.195312 -42.597656 9.035156 -44.871094 L 0 -44.871094 C 0.835938 -42.597656 1.078125 -39.964844 1.078125 -36.914062 C 1.078125 -32.007812 1.078125 -12.863281 1.078125 -7.957031 C 1.078125 -4.90625 0.835938 -2.273438 0 0 L 29.675781 0 L 30.09375 -6.820312 L 29.554688 -6.820312 C 29.074219 -5.5625 27.042969 -2.332031 21.71875 -2.332031 L 7.957031 -2.332031 Z M 7.957031 -36.914062 "/></g></g></g><g fill="#ffbd59" fill-opacity="1"><g transform="translate(230.122051, 243.70563)"><g><path d="M 23.273438 -45.707031 C 10.410156 -45.707031 0 -35.296875 0 -22.433594 C 0 -9.574219 10.410156 0.835938 23.273438 0.835938 C 36.136719 0.835938 46.546875 -9.574219 46.546875 -22.433594 C 46.546875 -35.296875 36.136719 -45.707031 23.273438 -45.707031 Z M 33.324219 -4.1875 C 25.488281 0.121094 14.71875 -4.605469 9.152344 -14.71875 C 3.589844 -24.769531 5.445312 -36.433594 13.222656 -40.742188 C 21 -44.992188 31.828125 -40.265625 37.390625 -30.210938 C 42.894531 -20.101562 41.101562 -8.4375 33.324219 -4.1875 Z M 33.324219 -4.1875 "/></g></g></g><g fill="#ffbd59" fill-opacity="1"><g transform="translate(281.750306, 243.70563)"><g><path d="M 35.296875 -44.871094 L 27.402344 -44.871094 C 31.050781 -42.777344 31.886719 -38.050781 31.886719 -34.222656 L 31.886719 -16.453125 C 31.886719 -8.375 26.980469 -2.632812 18.726562 -2.453125 C 9.992188 -2.332031 7.957031 -10.289062 7.957031 -16.871094 L 7.957031 -36.914062 C 7.957031 -39.964844 8.195312 -42.597656 9.035156 -44.871094 L 0 -44.871094 C 0.835938 -42.597656 1.078125 -39.964844 1.078125 -36.914062 L 1.078125 -16.992188 C 1.078125 -7.238281 7.238281 0 17.648438 0 C 28.058594 0 34.222656 -6.820312 34.222656 -16.273438 L 34.222656 -36.914062 C 34.222656 -39.964844 34.460938 -42.597656 35.296875 -44.871094 Z M 35.296875 -44.871094 "/></g></g></g><g fill="#ffbd59" fill-opacity="1"><g transform="translate(321.952162, 243.70563)"><g><path d="M 7.898438 0 C 4.246094 -2.09375 3.410156 -6.878906 3.410156 -10.710938 L 3.410156 -38.707031 L 19.085938 -8.375 L 21.71875 -8.375 L 37.992188 -39.785156 L 37.992188 -7.957031 C 37.992188 -4.90625 37.8125 -2.273438 36.914062 0 L 46.007812 0 C 45.109375 -2.273438 44.929688 -4.90625 44.929688 -7.957031 C 44.929688 -12.863281 44.929688 -32.007812 44.929688 -36.914062 C 44.929688 -39.964844 45.109375 -42.597656 46.007812 -44.871094 L 37.992188 -44.871094 L 22.972656 -15.914062 L 8.015625 -44.871094 L 0.238281 -44.871094 L 1.078125 -43.195312 L 1.078125 -7.957031 C 1.078125 -4.90625 0.835938 -2.273438 0 0 Z M 7.898438 0 "/></g></g></g></svg>